<?xml version="1.0" standalone="no"?>
<!DOCTYPE svg PUBLIC "-//W3C//DTD SVG 20010904//EN"
 "http://www.w3.org/TR/2001/REC-SVG-20010904/DTD/svg10.dtd">
<svg version="1.0" xmlns="http://www.w3.org/2000/svg"
 width="722.000000pt" height="722.000000pt" viewBox="0 0 722.000000 722.000000"
 preserveAspectRatio="xMidYMid meet">
<metadata>
Created by potrace 1.11, written by Peter Selinger 2001-2013
</metadata>
<g transform="translate(0.000000,722.000000) scale(0.100000,-0.100000)"
fill="#000000" stroke="none">
<path d="M0 3610 l0 -3610 3610 0 3610 0 0 3610 0 3610 -3610 0 -3610 0 0
-3610z m4818 1310 c390 -35 699 -280 778 -618 24 -101 21 -315 -5 -416 -25
-95 -92 -221 -170 -319 -92 -116 -157 -168 -471 -377 -279 -186 -401 -284
-492 -395 l-48 -60 607 -5 608 -5 3 -227 2 -228 -949 0 c-634 0 -952 3 -956
10 -12 19 15 229 41 317 30 103 96 233 165 326 111 148 336 329 756 610 160
106 289 229 345 326 93 161 68 384 -56 505 -128 124 -351 143 -486 40 -117
-89 -179 -228 -198 -444 l-7 -85 -250 0 -250 0 2 110 c6 232 78 445 207 614
138 180 362 296 617 320 46 5 89 9 94 9 6 1 57 -3 113 -8z m-1988 -692 c162
-22 344 -102 463 -202 127 -107 236 -323 237 -468 l0 -38 -254 0 -255 0 -16
58 c-22 75 -55 130 -106 176 -56 51 -111 74 -208 87 -251 34 -430 -120 -491
-420 -52 -256 5 -540 136 -681 28 -30 73 -63 113 -83 62 -30 72 -32 176 -32
108 0 113 1 188 38 110 54 180 148 210 283 l14 59 253 3 253 2 -7 -48 c-23
-173 -106 -353 -216 -468 -173 -182 -401 -267 -705 -266 -615 4 -1013 459
-956 1095 25 279 117 496 278 653 229 224 516 305 893 252z"/>
</g>
</svg>
